<svg xmlns="http://www.w3.org/2000/svg" viewBox="0 0 400 350" width="100%" height="100%">
  <defs>
    <linearGradient id="leafGrad" x1="0%" y1="0%" x2="100%" y2="100%">
      <stop offset="0%" stop-color="#34d399" />
      <stop offset="100%" stop-color="#059669" />
    </linearGradient>

    <linearGradient id="bulbGrad" x1="0%" y1="0%" x2="100%" y2="100%">
      <stop offset="0%" stop-color="#fb7185" />
      <stop offset="100%" stop-color="#e11d48" />
    </linearGradient>
    
    <linearGradient id="handleGrad" x1="0%" y1="0%" x2="100%" y2="100%">
      <stop offset="0%" stop-color="#475569" />
      <stop offset="100%" stop-color="#0f172a" />
    </linearGradient>

    <filter id="shadow" x="-10%" y="-10%" width="130%" height="130%">
      <feDropShadow dx="0" dy="8" stdDeviation="6" flood-opacity="0.25" />
    </filter>
    
    <filter id="glow" x="-20%" y="-20%" width="140%" height="140%">
      <feDropShadow dx="0" dy="0" stdDeviation="4" flood-color="#ffffff" flood-opacity="0.6" />
    </filter>
  </defs>

  <g filter="url(#shadow)">
    <path d="M 200 200 C 130 140, 130 50, 200 20 C 270 50, 270 140, 200 200 Z" 
          fill="url(#leafGrad)" stroke="#064e3b" stroke-width="4" stroke-linejoin="round"/>
    
    <path d="M 200 200 C 140 130, 50 130, 20 200 C 50 270, 140 270, 200 200 Z" 
          fill="url(#leafGrad)" stroke="#064e3b" stroke-width="4" stroke-linejoin="round"/>
    
    <path d="M 200 200 C 260 130, 350 130, 380 200 C 350 270, 260 270, 200 200 Z" 
          fill="url(#leafGrad)" stroke="#064e3b" stroke-width="4" stroke-linejoin="round"/>
          
    <path d="M 200 200 C 140 220, 80 270, 70 340 C 130 350, 180 280, 200 200 Z" 
          fill="url(#leafGrad)" stroke="#064e3b" stroke-width="4" stroke-linejoin="round"/>

    <g stroke="#047857" stroke-width="5" stroke-linecap="round">
      <line x1="200" y1="25" x2="200" y2="150" />
      <line x1="25" y1="200" x2="150" y2="200" />
      <line x1="375" y1="200" x2="250" y2="200" />
      <line x1="75" y1="335" x2="160" y2="250" />
    </g>

    <path d="M 140 230 C 140 120, 180 90, 200 65 C 220 90, 260 120, 260 230 Z" 
          fill="url(#bulbGrad)" stroke="#881337" stroke-width="4" stroke-linejoin="round"/>
  </g>

  <g filter="url(#shadow)">
    <line x1="235" y1="225" x2="255" y2="245" stroke="#334155" stroke-width="34" stroke-linecap="round" />
    
    <line x1="246" y1="236" x2="310" y2="300" stroke="url(#handleGrad)" stroke-width="26" stroke-linecap="round" />
    
    <line x1="265" y1="245" x2="280" y2="260" stroke="#64748b" stroke-width="4" stroke-linecap="round" />
    <line x1="275" y1="255" x2="290" y2="270" stroke="#64748b" stroke-width="4" stroke-linecap="round" />
    <line x1="285" y1="265" x2="300" y2="280" stroke="#64748b" stroke-width="4" stroke-linecap="round" />

    <circle cx="200" cy="190" r="70" fill="none" stroke="#1e293b" stroke-width="16" />
    
    <circle cx="200" cy="190" r="62" fill="none" stroke="#475569" stroke-width="2" />

    <circle cx="200" cy="190" r="62" fill="#38bdf8" fill-opacity="0.15" />
    
    <path d="M 155 155 A 45 45 0 0 1 225 150 A 50 50 0 0 0 150 195 Z" fill="#ffffff" fill-opacity="0.3" />
  </g>

  <g filter="url(#glow)" stroke="#ffffff" stroke-width="7" stroke-linecap="round" stroke-linejoin="round" fill="none">
    <polyline points="178,175 195,190 178,205" />
    <line x1="205" y1="205" x2="228" y2="205" />
  </g>
</svg>
